<?xml version="1.0" encoding="iso-8859-1"?>
<!-- Uploaded to: SVG Repo, www.svgrepo.com, Generator: SVG Repo Mixer Tools -->
<svg version="1.1" id="Layer_1" xmlns="http://www.w3.org/2000/svg" xmlns:xlink="http://www.w3.org/1999/xlink" 
	 viewBox="0 0 512 512" xml:space="preserve">
<circle style="fill:#31BAFD;" cx="256" cy="256" r="256"/>
<path style="fill:#2B9ED8;" d="M508.354,299.187L301.401,90.698c1.422,0-45.715,53.169-62.628,70.808l-24.147,2.551l42.524,42.524
	v57.177H141.648l-33.904,145.67l97.539,97.539C221.677,510.261,238.635,512,256,512C382.664,512,487.826,420.004,508.354,299.187z"
	/>
<path style="fill:#324A5E;" d="M357.707,257.724h-93.949V141.936h-15.515v115.788h-93.949c-16.32,0-29.596,13.277-29.596,29.596
	v27.579h15.515V287.32c0-7.764,6.318-14.081,14.081-14.081h93.949v41.662h15.515v-41.662h93.949c7.764,0,14.081,6.318,14.081,14.081
	v27.579h15.515V287.32C387.305,271.001,374.027,257.724,357.707,257.724z"/>
<path style="fill:#2B3B4E;" d="M357.707,257.724h-93.949V141.936h-8.332v172.965h8.332v-41.662h93.949
	c7.764,0,14.081,6.318,14.081,14.081v27.579h15.515V287.32C387.305,271.001,374.027,257.724,357.707,257.724z"/>
<g>
	<rect x="107.744" y="311.027" style="fill:#E6F3FF;" width="49.419" height="98.401"/>
	<rect x="231.296" y="311.027" style="fill:#E6F3FF;" width="49.419" height="98.401"/>
</g>
<g>
	<rect x="255.431" y="311.027" style="fill:#CFDBE6;" width="25.283" height="98.401"/>
	<rect x="354.832" y="311.027" style="fill:#CFDBE6;" width="49.419" height="98.401"/>
</g>
<circle style="fill:#FFD15D;" cx="256" cy="124.983" r="56.889"/>
<path style="fill:#F9B54C;" d="M256,68.094c-0.193,0-0.383,0.012-0.574,0.014v113.748c0.191,0.002,0.381,0.014,0.574,0.014
	c31.418,0,56.889-25.471,56.889-56.889S287.418,68.094,256,68.094z"/>
</svg>